<svg xmlns="http://www.w3.org/2000/svg" xmlns:xlink="http://www.w3.org/1999/xlink" width="113" height="32" viewBox="0 0 113 32">
    <defs>
        <path id="a" d="M17.965.182H0v31.723h17.965V.182z"/>
        <path id="c" d="M18.162.182H.197v31.723h17.965V.182z"/>
    </defs>
    <g fill="none" fill-rule="evenodd">
        <g transform="translate(0 .044)">
            <mask id="b" fill="#fff">
                <use xlink:href="#a"/>
            </mask>
            <path fill="#323232" d="M1.32 22.947c0 2.115.744 3.917 2.232 5.405 1.489 1.49 3.29 2.234 5.405 2.234h.076c2.098 0 3.89-.745 5.38-2.234 1.488-1.488 2.233-3.29 2.233-5.405v-3.553c0-2.098-.745-3.891-2.233-5.38-1.49-1.489-3.282-2.234-5.38-2.234h-.076c-2.114 0-3.916.745-5.405 2.233-1.488 1.49-2.233 3.283-2.233 5.38v3.554zm7.637 8.958c-2.47 0-4.584-.871-6.343-2.614C.87 27.531 0 25.417 0 22.947V.842A.66.66 0 0 1 .203.36.62.62 0 0 1 .66.182c.186 0 .346.06.482.178a.711.711 0 0 1 .177.482v13.882a9.037 9.037 0 0 1 3.198-3.096 8.696 8.696 0 0 1 4.44-1.193h.076c2.453 0 4.56.88 6.319 2.64 1.742 1.742 2.613 3.849 2.613 6.319v3.553c0 2.47-.871 4.585-2.613 6.344-1.76 1.743-3.866 2.614-6.319 2.614h-.076z" mask="url(#b)"/>
        </g>
        <path fill="#323232" d="M21.29 22.915c0 2.115.753 3.925 2.259 5.43 1.505 1.507 3.315 2.26 5.43 2.26h.101c2.115 0 3.925-.753 5.43-2.26 1.506-1.505 2.259-3.315 2.259-5.43v-3.63c0-2.114-.753-3.925-2.259-5.43-1.505-1.506-3.315-2.26-5.43-2.26h-.101c-2.115 0-3.925.754-5.43 2.26-1.506 1.505-2.259 3.316-2.259 5.43v3.63zm7.689 9.034c-2.487 0-4.61-.88-6.37-2.639-1.776-1.776-2.664-3.908-2.664-6.395v-3.63c0-2.487.888-4.618 2.665-6.395 1.759-1.76 3.882-2.64 6.369-2.64h.101c2.487 0 4.61.88 6.37 2.64 1.776 1.777 2.664 3.908 2.664 6.395V31.29c0 .169-.068.321-.203.456a.66.66 0 0 1-.483.203.578.578 0 0 1-.456-.203.63.63 0 0 1-.203-.456v-3.655a8.906 8.906 0 0 1-3.223 3.122 8.83 8.83 0 0 1-4.466 1.192h-.101zM40.754 31.95a.632.632 0 0 1-.457-.203.63.63 0 0 1-.203-.457V18.854c0-2.453.804-4.492 2.41-6.116 1.608-1.641 3.62-2.462 6.04-2.462h.05c1.777 0 3.367.465 4.77 1.396 1.371.913 2.377 2.149 3.02 3.705a8.046 8.046 0 0 1 2.995-3.705c1.404-.93 2.994-1.396 4.77-1.396h.077c2.4 0 4.406.82 6.013 2.462 1.607 1.624 2.41 3.663 2.41 6.116V31.29c0 .169-.067.321-.203.457a.58.58 0 0 1-.456.202.658.658 0 0 1-.482-.202.63.63 0 0 1-.203-.457V18.854c0-2.064-.677-3.79-2.03-5.177-1.354-1.37-3.037-2.056-5.05-2.056h-.076c-2.03 0-3.722.685-5.075 2.056-1.353 1.387-2.03 3.113-2.03 5.177V31.29c0 .169-.067.321-.203.457a.58.58 0 0 1-.457.202.658.658 0 0 1-.481-.202.63.63 0 0 1-.204-.457V18.854c0-2.064-.676-3.79-2.03-5.177-1.353-1.37-3.044-2.056-5.075-2.056h-.05c-2.03 0-3.722.685-5.075 2.056-1.354 1.387-2.03 3.113-2.03 5.177V31.29c0 .169-.068.321-.203.457a.66.66 0 0 1-.482.202"/>
        <g transform="translate(74.434 .044)">
            <mask id="d" fill="#fff">
                <use xlink:href="#c"/>
            </mask>
            <path fill="#323232" d="M1.516 22.947c0 2.115.744 3.917 2.233 5.405 1.488 1.49 3.29 2.234 5.405 2.234h.076c2.097 0 3.89-.745 5.38-2.234 1.488-1.488 2.232-3.29 2.232-5.405v-3.553c0-2.098-.744-3.891-2.233-5.38-1.488-1.489-3.282-2.234-5.38-2.234h-.075c-2.115 0-3.917.745-5.405 2.233-1.489 1.49-2.233 3.283-2.233 5.38v3.554zm7.638 8.958c-2.47 0-4.585-.871-6.344-2.614-1.742-1.76-2.613-3.874-2.613-6.344V.842A.66.66 0 0 1 .399.36.62.62 0 0 1 .857.182c.185 0 .346.06.481.178a.712.712 0 0 1 .178.482v13.882a9.04 9.04 0 0 1 3.197-3.096 8.693 8.693 0 0 1 4.44-1.193h.077c2.453 0 4.558.88 6.318 2.64 1.742 1.742 2.614 3.849 2.614 6.319v3.553c0 2.47-.872 4.585-2.614 6.344-1.76 1.743-3.865 2.614-6.318 2.614h-.076z" mask="url(#d)"/>
        </g>
        <path fill="#974B97" d="M112.034 10.301c.185 0 .346.06.482.178a.71.71 0 0 1 .177.482v11.954c0 2.487-.88 4.619-2.639 6.395-1.76 1.76-3.882 2.64-6.368 2.64h-.077c-2.487 0-4.618-.88-6.394-2.64-1.76-1.776-2.64-3.908-2.64-6.395V10.96a.66.66 0 0 1 .204-.482.62.62 0 0 1 .457-.178c.186 0 .346.06.482.178a.662.662 0 0 1 .203.482v11.954c0 2.132.752 3.942 2.258 5.43 1.489 1.507 3.299 2.26 5.43 2.26h.077c2.113 0 3.923-.753 5.43-2.26 1.505-1.488 2.258-3.298 2.258-5.43V10.96a.71.71 0 0 1 .177-.482.71.71 0 0 1 .483-.178"/>
    </g>
</svg>
